<svg xmlns="http://www.w3.org/2000/svg" width="32" height="32" viewBox="0 0 32 32">
    <g fill="none" fill-rule="evenodd">
        <path fill="none" d="M2 2h28v28H2z"/>
        <path stroke="#98989A" stroke-linecap="round" stroke-linejoin="round" stroke-width="1.5" d="M8.857 12.342a17.448 17.448 0 0 0-2.182 1.823c-.379.37-.937.982-1.675 1.835 3.283 4 6.95 6 11 6 .715 0 1.418-.062 2.109-.187m3.025-.98c.842-.4 1.665-.903 2.468-1.51.783-.59 1.916-1.699 3.398-3.323-3.283-4-6.95-6-11-6-1.549 0-3.041.292-4.478.877"/>
        <path fill="#98989A" d="M18.828 18.828a4 4 0 1 0-5.657-5.657c-.723.724 4.934 6.381 5.657 5.657z"/>
        <path stroke="#979797" stroke-linecap="round" stroke-width="1.5" d="M5 5l22 22"/>
        <path fill="#98989A" d="M12.07 15.252l4.678 4.678a4 4 0 0 1-4.678-4.678zm3.182-3.182a4 4 0 0 1 4.678 4.678l-4.678-4.678z"/>
    </g>
</svg>
